<svg xmlns="http://www.w3.org/2000/svg" version="1.1" xmlns:xlink="http://www.w3.org/1999/xlink" xmlns:svgjs="http://svgjs.dev/svgjs" viewBox="0 0 800 800"><defs><linearGradient x1="50%" y1="0%" x2="50%" y2="100%" id="uundulate-grad"><stop stop-color="hsl(230, 55%, 50%)" stop-opacity="1" offset="45%"></stop><stop stop-color="hsl(230, 55%, 70%)" stop-opacity="1" offset="100%"></stop></linearGradient></defs><g stroke-width="2" stroke="url(#uundulate-grad)" fill="none"><path d="M664.2974379071726 175.60433682499553C713.9199853704426 299.12380764124646 748.7153783001356 633.7501575791989 686.8756749459995 697.3207330510367C625.0359715918635 760.8913085228744 493.6642920265974 579.7641984085706 367.46686180731854 480.7430990898174C241.2694315880397 381.72199977106425 64.20705461950615 300.41858672868625 81.12800989346107 222.01945632102263C98.04896516741599 143.62032591335907 327.193816286113 114.09708969470506 448.68744712230296 104.42727313303254C570.181077958493 94.75745657136002 614.6748904439024 52.08486600874454 664.2974379071726 175.60433682499553C713.9199853704426 299.12380764124646 748.7153783001356 633.7501575791989 686.8756749459995 697.3207330510367 "></path><path d="M651.0826224693334 186.82409862144107C698.2240425594401 304.16759589687956 731.2796658426485 622.0626283379344 672.5319476562191 682.4546750361802C613.7842294697898 742.8467217344261 488.98113388278705 570.7759671258373 369.0935751744721 476.70592277302194C249.20601646615728 382.6358784202064 80.9967583460504 305.3976360299472 97.07166585630756 230.91846214266684C113.14657336656472 156.43928825538643 330.83418192932686 128.39221384766512 446.25313122370744 119.20588811407623C561.6720805180878 110.01956238048734 603.9412023792269 69.48060134600257 651.0826224693334 186.82409862144107C698.2240425594401 304.16759589687956 731.2796658426485 622.0626283379344 672.5319476562191 682.4546750361802 "></path><path d="M637.8677459963382 198.04392145304286C682.5280387132811 309.2114451876687 713.8438923500049 610.375160131826 658.1881593312825 667.5886780564799C602.5324263125599 724.802195981134 484.29791470382054 561.7877968782605 370.72022750646954 472.6688074913825C257.14254030911854 383.54981810450477 97.7864010374384 310.3767463663644 113.0152607839978 239.81752899946724C128.2441205305572 169.25831163257004 334.47448653738456 142.68739903578143 443.81875428995545 133.98456413027617C553.1630220425266 125.28172922477091 593.207453279395 86.87639771841697 637.8677459963382 198.04392145304286C682.5280387132811 309.2114451876687 713.8438923500049 610.375160131826 658.1881593312825 667.5886780564799 "></path><path d="M624.6528390057647 209.26374428464464C666.8320043495443 314.25529447845804 696.4080883397833 598.6876919257177 643.8443404887676 652.7226810767796C591.2805926377519 706.7576702278418 479.6146650072758 552.7996266306834 372.34684932088874 468.6316922097433C265.0790336345017 384.46375778880315 114.57601321124821 315.3558567027817 128.95882519410986 248.7165958562677C143.34163717697157 182.07733500975365 338.11476062786403 156.98258422389773 441.38434683862556 148.7632401464761C544.653933049387 140.54389606905448 582.473673661985 104.27219409083125 624.6528390057647 209.26374428464464C666.8320043495443 314.25529447845804 696.4080883397833 598.6876919257177 643.8443404887676 652.7226810767796 "></path><path d="M611.4379625327692 220.48352133987925C651.1360005033854 319.29909799288 678.9723148471398 587.000177943242 629.5005521638309 637.8566383207121C580.0287894805219 688.7130986981824 474.9314458283093 543.8114106067392 373.97350165288617 464.59453115173676C273.015557477463 385.37765169673435 131.3656559026362 320.3349212628318 144.9024201218001 257.6156169367009C158.43918434096406 194.89631261057008 341.7550652359216 171.27772363564685 438.9499699048737 163.54187038630886C536.1448745738256 155.80601713697087 571.7399245621532 121.6679446868784 611.4379625327692 220.48352133987925C651.1360005033854 319.29909799288 678.9723148471398 587.000177943242 629.5005521638309 637.8566383207121 "></path><path d="M598.223101318563 231.70329839511385C635.4400119160157 324.34290150730214 661.5365566132854 575.3126639607665 615.1567790976833 622.9905955646448C568.7770015820811 670.668527168523 470.2482419081316 534.8231945827952 375.60016924367255 460.55737009373024C280.9520965792134 386.29154560466543 148.1553138528132 325.3139858228818 160.8460303082794 266.5146380171342C173.53674676374555 207.7152902113865 345.3953851027684 185.57286304739597 436.51560822991087 178.3205006261416C527.6358313570533 171.0681382048872 561.0061907211104 139.06369528292555 598.223101318563 231.70329839511385C635.4400119160157 324.34290150730214 661.5365566132854 575.3126639607665 615.1567790976833 622.9905955646448 "></path><path d="M585.0082095867785 242.92310596792657C619.7439928110678 329.3867355393022 644.1007678618528 563.625180495869 600.8129755139576 608.1245833261554C557.5251831660621 652.6239861564419 465.56500747037603 525.8350090764291 377.2268063168808 456.52023955330196C288.8886051633856 387.20547003017475 164.94494128541214 330.29308090051006 176.7896099771806 275.4136896151456C188.63427866894898 220.53429832978105 349.0356744520369 199.8680329767232 434.0812160373699 193.09916138355248C519.1267576227028 186.3302897903817 550.2724263624896 156.45947639655083 585.0082095867785 242.92310596792657C619.7439928110678 329.3867355393022 644.1007678618528 563.625180495869 600.8129755139576 608.1245833261554 "></path><path d="M571.7933331137833 254.1427914704268C604.0479889649089 334.43044750098994 626.6649943692092 551.937574960659 586.4691871890208 593.2584490173535C546.2733800088324 634.579323074048 460.8817882914094 516.8467014997506 378.85345864887813 452.48298694256096C296.8251290063469 388.11927238537146 181.73458397680008 335.2720539078257 192.73320490487077 284.31261914284437C203.73182583294147 233.3531843778631 352.67597906009456 214.16308083573796 431.64683910361805 207.87770007065086C510.6176991471416 201.5923193055637 539.5386772626578 173.8551354398636 571.7933331137833 254.1427914704268C604.0479889649089 334.43044750098994 626.6649943692092 551.937574960659 586.4691871890208 593.2584490173535 "></path><path d="M558.578487158366 265.36258378445046C588.3520156363281 339.47426627420106 609.2292513941438 540.2500762369725 572.1254293816622 578.3924215200752C535.0216073691806 616.5347668031778 456.1985996300209 507.8585007345955 380.4801414984536 448.4458411433436C304.76168336688636 389.0331815520917 198.5242571857662 340.2511337266649 208.67683035013914 293.2116554820667C218.82940351451208 246.1721772374686 356.31631418573033 228.45823550627614 429.2124926874443 222.65634556927267C502.10867118915826 216.85445563226915 528.804958680404 191.25090129469982 558.578487158366 265.36258378445046C588.3520156363281 339.47426627420106 609.2292513941438 540.2500762369725 572.1254293816622 578.3924215200752 "></path><path d="M545.3636106853708 276.5823760984741C572.6560117901693 344.51808504741217 591.7934779015004 528.562577513286 557.7816410567256 563.5263940227968C523.7698042119507 598.4902105323076 451.5153804510544 498.87029996944034 382.106793830451 444.40869534412616C312.6982072098476 389.947090718812 215.3138998771542 345.230213545504 224.62042527782938 302.11069182128904C233.92695067850457 258.9911700970741 359.9566187937879 242.75339017681432 426.7781157536924 237.43499106789443C493.5996127135969 232.1165919589746 518.0712095805721 208.64666714953603 545.3636106853708 276.5823760984741C572.6560117901693 344.51808504741217 591.7934779015004 528.562577513286 557.7816410567256 563.5263940227968 "></path><path d="M532.1487494711644 287.80219893007586C556.9600232027994 349.56193433820135 574.3577196676459 516.8751093071776 543.4378679905778 548.6603970430965C512.5180163135099 580.4456847790153 446.83217653087684 489.8821297218634 383.7334614212374 440.3715800624868C320.63474631159795 390.86103040311025 232.1035578273312 350.20932388192125 240.5640354643087 311.00975867808944C249.02451310128612 271.81019347425763 363.59693866063463 257.0485753649306 424.3437540787296 252.21366708409437C485.0905694968246 247.37875880325817 507.3374757395293 226.04246352195037 532.1487494711644 287.80219893007586C556.9600232027994 349.56193433820135 574.3577196676459 516.8751093071776 543.4378679905778 548.6603970430965 "></path><path d="M518.9339035157473 299.0219302089433C541.2640498742187 354.6056920762562 556.9219766925805 505.1875495483348 529.0941101832193 533.7943085106618C501.26624367385807 562.4010674729889 442.14898786948834 480.8938679215521 385.3601442708129 436.3343732281131C328.5713006721374 391.77487853467426 248.89323103629732 355.18834266560407 256.507660909577 319.9087339821555C264.12209078285673 284.62912529870687 367.2372737862704 271.34366900031256 421.90940766255585 266.99225154755993C476.5815415388414 262.6408340948073 496.6037571572756 243.43816834163033 518.9339035157473 299.0219302089433C541.2640498742187 354.6056920762562 556.9219766925805 505.1875495483348 529.0941101832193 533.7943085106618 "></path><path d="M505.7189965251737 310.241737781756C525.5680155104817 359.6495261082564 539.486172682359 493.50006608343733 514.7502913407045 518.9282962721725C490.01440999905003 544.3565264609076 437.4657381729437 471.905682415186 386.98676608523215 432.29724268768473C336.5077939975206 392.6888029601836 265.68284321010714 360.1674377432323 272.4512253196891 328.80778558016686C279.2196074292711 297.4481334171014 370.8775478767499 285.6388389296398 419.4750002112259 281.7709123049708C468.07245254570194 277.9029856803018 485.86997753986566 260.8339494552556 505.7189965251737 310.241737781756C525.5680155104817 359.6495261082564 539.486172682359 493.50006608343733 514.7502913407045 518.9282962721725 "></path><path d="M492.50412005217834 321.46153009577966C509.87201166432294 364.6933448814675 522.0503991897154 481.8125673597509 500.40650301576784 504.06226877489416C478.7626068418201 526.3119701900373 432.7825189939771 462.91748165003094 388.61341841722947 428.2600968884674C344.44431784048186 393.6027121269038 282.47248590149513 365.14651756207144 288.39482024737936 337.7068219193892C294.3171545932636 310.2671262767069 374.5178524848075 299.93399360017804 417.040623277474 296.5495578035926C459.5633940701405 293.16512200700726 475.13622844003385 278.2297153100918 492.50412005217834 321.46153009577966C509.87201166432294 364.6933448814675 522.0503991897154 481.8125673597509 500.40650301576784 504.06226877489416 "></path><path d="M479.28925883797206 332.6812613746471C494.17602307695313 369.7371026195224 504.614640955861 470.12500760090813 486.06272994962023 489.1961802424595C467.5108189433794 508.26735288401073 428.0993150737995 453.92921984971963 390.24008600801585 424.2228900540937C352.38085694223224 394.51656025846773 299.26214385167214 370.1255363457543 304.33843043385866 346.6057972234552C309.41471701604513 323.08605810115614 378.15817235165423 314.22908723556 414.6062616025112 311.3281422670582C451.0543508533682 308.42719729855645 464.40249459899104 295.6254201297718 479.28925883797206 332.6812613746471C494.17602307695313 369.7371026195224 504.614640955861 470.12500760090813 486.06272994962023 489.1961802424595 "></path><path d="M466.0743823649767 343.901114723827C478.48001923079426 374.78098242788974 487.1788674632175 458.43756991237785 471.71894162468345 474.3302137803373C456.25901578614946 490.22285764829667 423.41609589483295 444.94108011972077 391.8667383400132 420.1858052900325C360.3173807851935 395.4305304603442 316.05178654306013 375.1046771997497 320.28202536154885 355.50489459783375C324.51226418003756 335.9051119959179 381.7984769597118 328.5243029412544 412.17188466875933 326.10684880083625C442.54529237780685 323.68939466041815 453.6687454991592 313.02124701976425 466.0743823649767 343.901114723827C478.48001923079426 374.78098242788974 487.1788674632175 458.43756991237785 471.71894162468345 474.3302137803373 "></path><path d="M452.8594906331923 355.1208917790616C462.7840001258463 379.8247859423118 469.74307871178496 446.75005592990226 457.3751380409577 459.46417102426983C445.0071973701305 472.1782861186374 418.7328614570773 435.9528640957766 393.49337541322154 416.14864423202596C368.25388936936577 396.3444243682754 332.84141397565907 380.08374175979975 336.22560503045 364.403915678267C339.609796085241 348.7240895967343 385.4387663089804 342.8194423530035 409.73749247621845 340.885479040669C434.03621864345644 338.9515157283345 442.9349811405383 330.4169976158114 452.8594906331923 355.1208917790616C462.7840001258463 379.8247859423118 469.74307871178496 446.75005592990226 457.3751380409577 459.46417102426983 "></path><path d="M439.644629418986 366.34063831671807C447.08801153847656 384.8685589391557 452.3073204779305 435.0625114298486 443.0313649748101 444.5980977506243C433.7554094716897 454.1336840713999 414.04965753689976 426.96461755425435 395.1200430040079 412.1114526564414C376.1904284711161 397.2582877586284 349.63107192583607 385.0627758022717 352.16921521692933 373.3029062411222C354.70735850802254 361.5430366799726 389.0790861758271 357.1145512471745 407.30313080125563 355.6640787629236C425.5271754266841 354.2136062786727 432.20124729949555 347.8127176942804 439.644629418986 366.34063831671807C447.08801153847656 384.8685589391557 452.3073204779305 435.0625114298486 443.0313649748101 444.5980977506243 "></path><path d="M426.4297376872016 377.5604001131636C431.3919924335286 389.9123471947887 434.87153172649795 423.37498218858394 428.68756139108433 429.7320397357677C422.5035910556707 436.0890972829515 409.36642309914413 417.9763862715211 396.74668007721624 408.0742763396458C384.12693705528835 398.1721664077705 366.420699358435 390.0418251035327 368.1127948858305 382.2019120627663C369.80489041322596 374.36199902199996 392.7193755250957 371.4096754001346 404.8687386087147 370.4426937439673C417.0181016923337 369.47571208780005 421.4674829408746 365.2084530315385 426.4297376872016 377.5604001131636C431.3919924335286 389.9123471947887 434.87153172649795 423.37498218858394 428.68756139108433 429.7320397357677 "></path><path d="M413.2148917317844 388.7802229447654C415.69601910494794 394.95619648557795 417.4357887514326 411.6875139824756 414.34380358372573 414.8660427560675C411.251818416019 418.0445715296594 404.68323443775563 408.9882160239442 398.3733629267917 404.0371610580065C392.06349141582774 399.08610609206886 383.21037256740107 395.02093543994994 384.0564203310988 391.1009789195668C384.9024680947966 387.1810223991836 396.3597106507314 385.7048605882509 402.43439219254094 385.22136976016725C408.5090737343504 384.7378789320836 410.73376435862093 382.60424940395285 413.2148917317844 388.7802229447654C415.69601910494794 394.95619648557795 417.4357887514326 411.6875139824756 414.34380358372573 414.8660427560675 "></path></g></svg>